<svg id="Capa_1" enable-background="new 0 0 512 512" height="512" viewBox="0 0 512 512" width="512" xmlns="http://www.w3.org/2000/svg"><g><g><path d="m468.564 126.378c-60.294-72.39-188.408-117.508-213.574-125.853-2.11-.7-4.385-.7-6.495 0-25.167 8.345-153.281 53.463-213.574 125.853-1.562 1.876-2.37 4.259-2.332 6.7.492 31.684 11.268 252.504 213.683 377.37 3.354 2.069 7.587 2.069 10.94 0 202.415-124.866 213.191-345.686 213.683-377.37.039-2.441-.769-4.824-2.331-6.7z" fill="#17998c"/><path d="m391.953 380.734c-12.764 19.203-27.609 38.24-44.854 56.598-25.672-1.422-56.083-2.4-91.099-2.4-38.755 0-71.865 1.205-99.165 2.864-17.441-18.492-32.43-37.694-45.307-57.062z" fill="#138b80"/><path d="m470.892 133.081c-.484 31.678-11.26 252.497-213.68 377.366-3.358 2.071-7.582 2.071-10.941 0-9.725-5.996-18.997-12.218-27.856-18.626 196.62-118.048 207.18-321.952 207.674-351.467.041-2.297-.773-4.533-2.328-6.305-60.296-68.095-188.409-110.549-213.577-118.399-.515-.165-1.04-.288-1.576-.361 18.615-7.51 33.048-12.496 39.889-14.762 2.112-.701 4.389-.701 6.49 0 25.167 8.344 153.281 53.456 213.577 125.847 1.566 1.875 2.369 4.265 2.328 6.707z" fill="#138b80"/><path d="m251.741 475.715c-38.992-26.174-72.559-58.122-99.981-95.195-25.58-34.582-46.003-73.791-60.703-116.539-18.54-53.915-23.282-100.224-24.488-121.598 23.744-25.353 60.981-50.778 108.658-74.088 32.136-15.711 60.883-26.531 76.514-32.01 15.631 5.479 44.378 16.299 76.514 32.01 47.68 23.311 84.918 48.736 108.661 74.09-1.203 21.323-5.941 67.654-24.49 121.595-14.699 42.748-35.123 81.957-60.703 116.539-27.423 37.074-60.99 69.022-99.982 95.196z" fill="#23f1a8"/><path d="m351.56 380.734c-14.629 19.759-31.008 38.055-49.026 54.795-14.474-.381-29.989-.598-46.533-.598-19.728 0-37.993.309-54.775.845-18.131-16.802-34.604-35.181-49.305-55.043h199.639z" fill="#26d192"/><path d="m436.917 142.383c-1.205 21.325-5.944 67.652-24.487 121.592-14.701 42.753-35.129 81.961-60.709 116.544-27.423 37.076-60.987 69.022-99.979 95.199-7.592-5.099-14.979-10.415-22.159-15.947 32.44-23.117 60.75-50.335 84.465-81.261 25.579-33.337 46.008-71.144 60.709-112.372 18.543-52.014 23.282-96.682 24.487-117.245-23.746-24.446-60.976-48.964-108.663-71.443-28.649-13.506-54.61-23.262-70.98-28.969 13.197-5.367 24.312-9.457 32.142-12.197 15.628 5.481 44.38 16.297 76.512 32.008 47.675 23.314 84.916 48.738 108.662 74.091z" fill="#26d192"/><path d="m425.905 216.927c7.643-32.991 10.177-59.77 11.01-74.542-23.743-25.355-60.98-50.779-108.661-74.09-32.136-15.711-60.882-26.531-76.514-32.01-15.631 5.479-44.378 16.299-76.514 32.01-47.677 23.309-84.915 48.735-108.658 74.088.835 14.804 3.371 41.574 11.008 74.544 0 0 51.238-10.302 174.164-10.302s174.165 10.302 174.165 10.302z" fill="#fcb44d"/><path d="m436.917 142.383c-.834 14.773-3.369 41.547-11.013 74.544 0 0-11.208-2.256-35.716-4.656 6.13-27.897 8.293-50.427 9.055-63.377-23.746-24.446-60.976-48.964-108.663-71.443-28.649-13.506-54.61-23.262-70.98-28.969 13.197-5.367 24.312-9.457 32.142-12.197 15.628 5.481 44.38 16.297 76.512 32.008 47.676 23.313 84.917 48.737 108.663 74.09z" fill="#fb9927"/><g><path d="m167.123 72.331v136.159c-16.019.762-29.721 1.689-41.238 2.648v-115.68c12.588-7.86 26.372-15.597 41.238-23.127z" fill="#fde734"/><path d="m272.356 43.908v162.82c-6.634-.072-13.506-.103-20.614-.103s-13.98.031-20.614.103v-162.82c8.18-3.173 15.195-5.717 20.614-7.623 5.418 1.906 12.434 4.45 20.614 7.623z" fill="#fde734"/><path d="m251.742 36.285c5.419 1.906 12.434 4.45 20.614 7.623v25.27c-15.556-6.789-29.721-12.331-41.228-16.555v-8.715c8.179-3.173 15.195-5.717 20.614-7.623z" fill="#f3d730"/><path d="m377.599 95.458v115.679c-11.517-.958-25.219-1.885-41.238-2.648v-136.158c14.865 7.53 28.649 15.267 41.238 23.127z" fill="#fde734"/><path d="m377.599 95.458v34.037c-11.899-9.436-25.703-18.801-41.238-27.969v-29.195c14.865 7.53 28.649 15.267 41.238 23.127z" fill="#f3d730"/></g><g><g><g><g><g><path d="m121.78 472.826h-107.471c-8.11 0-12.867-9.124-8.225-15.773l16.774-24.028c4.544-6.509 4.544-15.161 0-21.669l-16.774-24.028c-4.642-6.65.116-15.773 8.225-15.773h112.622v96.12c0 2.845-2.306 5.151-5.151 5.151z" fill="#804d9e"/></g><g><path d="m6.084 457.049c-4.646 6.655.113 15.782 8.221 15.782h34.377c-8.107 0-12.867-9.127-8.221-15.782l16.771-24.024c4.543-6.511 4.543-15.164 0-21.665l-16.771-24.034c-4.646-6.645.113-15.772 8.221-15.772h-34.377c-8.107 0-12.867 9.127-8.221 15.772l16.771 24.034c4.543 6.5 4.543 15.154 0 21.665z" fill="#683983"/></g><path d="m61.617 424.771 61.203 45.031c1.705 1.254 4.111.037 4.111-2.079v-72.418h-69.511v21.168c0 3.276 1.558 6.356 4.197 8.298z" fill="#975bbb"/></g></g></g><g><g><g><g><path d="m390.22 472.826h107.471c8.11 0 12.867-9.124 8.225-15.773l-16.774-24.028c-4.544-6.509-4.544-15.161 0-21.669l16.774-24.028c4.642-6.65-.116-15.773-8.225-15.773h-112.622v96.12c0 2.845 2.306 5.151 5.151 5.151z" fill="#804d9e"/></g><g><path d="m505.916 457.049c4.646 6.655-.113 15.782-8.221 15.782h-34.377c8.107 0 12.867-9.127 8.221-15.782l-16.771-24.024c-4.543-6.511-4.543-15.164 0-21.665l16.771-24.034c4.646-6.645-.113-15.772-8.221-15.772h34.377c8.107 0 12.867 9.127 8.221 15.772l-16.771 24.034c-4.543 6.5-4.543 15.154 0 21.665z" fill="#683983"/></g><path d="m450.383 424.771-61.203 45.031c-1.705 1.254-4.111.037-4.111-2.079v-72.418h69.511v21.168c0 3.276-1.558 6.356-4.197 8.298z" fill="#975bbb"/></g></g><g><g><g><g><g><g><g><path d="m256.001 409.18c108.968 0 174.144 9.317 192.909 12.436 2.972.494 5.669-1.8 5.669-4.814v-85.999c0-2.377-1.707-4.407-4.05-4.808-16.365-2.802-82.165-12.709-194.528-12.709s-178.163 9.907-194.528 12.709c-2.343.401-4.05 2.43-4.05 4.808v85.999c0 3.013 2.697 5.308 5.669 4.814 18.765-3.119 83.941-12.436 192.909-12.436z" fill="#bc83df"/></g></g></g></g><g><g fill="#138b80"><path d="m129.676 234.07c-4.267 0-7.726 3.459-7.726 7.726v40.514c0 4.267 3.459 7.726 7.726 7.726h25.009c4.267 0 7.726-3.459 7.726-7.726s-3.459-7.726-7.726-7.726h-17.282v-32.787c-.001-4.268-3.46-7.727-7.727-7.727z"/><path d="m182.078 282.31v-40.514c0-4.267-3.459-7.726-7.726-7.726s-7.726 3.459-7.726 7.726v40.514c0 4.267 3.459 7.726 7.726 7.726s7.726-3.459 7.726-7.726z"/><path d="m221.993 290.036c4.267 0 7.726-3.459 7.726-7.726v-40.514c0-3.138-1.898-5.964-4.803-7.152-2.904-1.187-6.239-.5-8.437 1.739l-6.99 7.121-6.991-7.121c-2.198-2.239-5.534-2.926-8.437-1.739-2.905 1.188-4.803 4.014-4.803 7.152v40.514c0 4.267 3.459 7.726 7.726 7.726s7.726-3.459 7.726-7.726v-21.704c1.355 1.066 3.036 1.654 4.778 1.654s3.423-.589 4.778-1.654v21.704c.001 4.267 3.46 7.726 7.727 7.726z"/><path d="m252.836 282.31v-40.514c0-4.267-3.459-7.726-7.726-7.726s-7.726 3.459-7.726 7.726v40.514c0 4.267 3.459 7.726 7.726 7.726 4.266 0 7.726-3.459 7.726-7.726z"/><path d="m278.614 290.036c4.267 0 7.726-3.459 7.726-7.726v-32.787h4.778c4.267 0 7.726-3.459 7.726-7.726s-3.459-7.726-7.726-7.726h-25.008c-4.267 0-7.726 3.459-7.726 7.726s3.459 7.726 7.726 7.726h4.778v32.787c-.001 4.267 3.459 7.726 7.726 7.726z"/><path d="m336.395 249.523c4.267 0 7.726-3.459 7.726-7.726s-3.459-7.726-7.726-7.726h-25.009c-4.267 0-7.726 3.459-7.726 7.726v40.514c0 4.267 3.459 7.726 7.726 7.726h25.009c4.267 0 7.726-3.459 7.726-7.726s-3.459-7.726-7.726-7.726h-17.283v-4.804h11.781c4.267 0 7.726-3.459 7.726-7.726s-3.459-7.726-7.726-7.726h-11.781v-4.804h17.283z"/><path d="m369.82 290.036c11.155 0 20.23-9.075 20.23-20.23v-15.506c0-11.155-9.075-20.23-20.23-20.23h-12.505c-4.267 0-7.726 3.459-7.726 7.726v40.514c0 4.267 3.459 7.726 7.726 7.726zm-4.778-40.513h4.778c2.634 0 4.778 2.143 4.778 4.778v15.506c0 2.634-2.143 4.778-4.778 4.778h-4.778z"/></g><path d="m330.014 388.597c11.155 0 20.231-9.075 20.231-20.231v-15.506c0-11.155-9.075-20.23-20.231-20.23-11.155 0-20.231 9.075-20.231 20.23v15.506c0 11.156 9.076 20.231 20.231 20.231zm-4.778-35.736c0-2.634 2.143-4.778 4.778-4.778s4.778 2.143 4.778 4.778v15.506c0 2.635-2.143 4.778-4.778 4.778s-4.778-2.143-4.778-4.778z" fill="#eaf6ff"/><path d="m367.268 391.688c4.267 0 7.726-3.459 7.726-7.726v-13.288l10.708 17.347.006-.004c1.362 2.201 3.79 3.672 6.568 3.672 4.267 0 7.726-3.459 7.726-7.726v-40.514c0-4.267-3.459-7.726-7.726-7.726s-7.726 3.459-7.726 7.726v13.289l-10.708-17.347c-1.814-2.94-5.361-4.318-8.684-3.375-3.324.944-5.617 3.978-5.617 7.433v40.514c.001 4.265 3.46 7.725 7.727 7.725z" fill="#eaf6ff"/><path d="m246.884 346.735v32.787c0 4.267 3.459 7.726 7.726 7.726s7.726-3.459 7.726-7.726v-32.787h4.547c4.267 0 7.726-3.459 7.726-7.726s-3.459-7.726-7.726-7.726h-24.547c-4.267 0-7.726 3.459-7.726 7.726s3.459 7.726 7.726 7.726z" fill="#eaf6ff"/><path d="m180.87 332.63h-12.505c-4.267 0-7.726 3.459-7.726 7.726v40.514c0 4.267 3.459 7.726 7.726 7.726h12.505c11.155 0 20.231-9.075 20.231-20.231v-15.506c0-11.153-9.076-20.229-20.231-20.229zm4.778 35.736c0 2.635-2.143 4.778-4.778 4.778h-4.778v-25.061h4.778c2.635 0 4.778 2.143 4.778 4.778z" fill="#eaf6ff"/><path d="m144.741 351.174c4.267 0 7.726-3.459 7.726-7.726s-3.459-7.726-7.726-7.726h-25.009c-4.267 0-7.726 3.459-7.726 7.726v40.514c0 4.267 3.459 7.726 7.726 7.726h25.009c4.267 0 7.726-3.459 7.726-7.726s-3.459-7.726-7.726-7.726h-17.282v-4.804h11.78c4.267 0 7.726-3.459 7.726-7.726s-3.459-7.726-7.726-7.726h-11.78v-4.804h17.282z" fill="#eaf6ff"/><path d="m218.462 331.282c-4.267 0-7.726 3.459-7.726 7.726v40.514c0 4.267 3.459 7.726 7.726 7.726s7.726-3.459 7.726-7.726v-40.514c0-4.267-3.459-7.726-7.726-7.726z" fill="#eaf6ff"/><path d="m290.759 387.248c4.267 0 7.726-3.459 7.726-7.726v-40.514c0-4.267-3.459-7.726-7.726-7.726s-7.726 3.459-7.726 7.726v40.514c0 4.267 3.459 7.726 7.726 7.726z" fill="#eaf6ff"/></g><g><g><g><g><path d="m454.578 330.808v85.999c0 3.008-2.699 5.305-5.666 4.811-5.542-.917-15.113-2.38-28.67-3.976.711-.845 1.144-1.947 1.144-3.152v-88.832c0-1.659-.835-3.142-2.133-4.028 15.525 1.813 25.981 3.461 31.276 4.368 2.339.4 4.049 2.43 4.049 4.81z" fill="#ae6ad8"/></g></g></g></g></g></g></g></g></g></g></g></svg>